<svg width="45" height="45" viewBox="0 0 45 45" fill="none" xmlns="http://www.w3.org/2000/svg">
<circle cx="22.5" cy="22.5" r="22.5" fill="#038263"/>
<path d="M32.5509 30.916H25.2853C25.1399 31.2309 24.9462 31.5457 24.6798 31.8121C24.1349 32.357 23.4204 32.6477 22.6454 32.6477C21.8704 32.6477 21.156 32.357 20.611 31.8121L15.5009 26.702C15.2708 26.4719 15.2708 26.1328 15.5009 25.9027C15.731 25.6727 16.07 25.6727 16.3001 25.9027L21.4466 31.0492C22.1126 31.7152 23.2024 31.7152 23.8927 31.0492C24.5587 30.3832 24.5587 29.2934 23.8927 28.6031L17.4868 22.1973C16.4212 21.1316 15.0407 20.623 13.6724 20.5867H7.01221V27.477H10.2333C10.9841 27.477 11.6985 27.7676 12.2677 28.3125L16.7239 32.7687C17.8138 33.8586 19.3396 34.3793 20.7442 34.3793H32.5509C33.4954 34.3793 34.2704 33.6043 34.2704 32.6598C34.2704 31.7152 33.4954 30.916 32.5509 30.916ZM36.111 20.4656C38.2786 18.5645 38.545 15.2465 36.6317 13.0426C34.7306 10.875 31.4126 10.6086 29.2087 12.5219L28.4579 13.1758L27.7071 12.5219C25.5395 10.6207 22.1853 10.875 20.2841 13.0426C18.3708 15.2102 18.6372 18.5645 20.8048 20.4656L28.3368 28.1914L36.111 20.4656Z" fill="white"/>
</svg>
