<svg width="72" height="72" viewBox="0 0 72 72" fill="none" xmlns="http://www.w3.org/2000/svg">
<path fill-rule="evenodd" clip-rule="evenodd" d="M36 66C52.5684 66 66 52.5684 66 36C66 19.4314 52.5684 6 36 6C19.4314 6 6 19.4314 6 36C6 52.5684 19.4314 66 36 66ZM38.25 27C38.25 25.7574 37.2426 24.75 36 24.75C34.7574 24.75 33.75 25.7574 33.75 27V33.75H27C25.7574 33.75 24.75 34.7574 24.75 36C24.75 37.2426 25.7574 38.25 27 38.25H33.75V45C33.75 46.2426 34.7574 47.25 36 47.25C37.2426 47.25 38.25 46.2426 38.25 45V38.25H45C46.2426 38.25 47.25 37.2426 47.25 36C47.25 34.7574 46.2426 33.75 45 33.75H38.25V27Z" fill="#F58319"/>
</svg>
