<svg width="10" height="9" viewBox="0 0 10 9" fill="none" xmlns="http://www.w3.org/2000/svg">
<path d="M0.816294 0C0.703441 0 0.612221 0.0916364 0.612221 0.204545V1.84091C0.612221 1.95402 0.703441 2.04545 0.816294 2.04545H3.0611C3.17396 2.04545 3.26518 1.95402 3.26518 1.84091V0.204545C3.26518 0.0916364 3.17396 0 3.0611 0H0.816294ZM7.5842 1.73864C7.2017 1.73864 6.87875 1.86145 6.70533 2.04545H5.50998C5.48294 2.04507 5.45609 2.05008 5.431 2.06019C5.4059 2.07029 5.38306 2.0853 5.36381 2.10433C5.34455 2.12336 5.32926 2.14604 5.31882 2.17105C5.30838 2.19606 5.303 2.22289 5.303 2.25C5.303 2.27711 5.30838 2.30394 5.31882 2.32895C5.32926 2.35396 5.34455 2.37664 5.36381 2.39567C5.38306 2.4147 5.4059 2.42971 5.431 2.43981C5.45609 2.44992 5.48294 2.45493 5.50998 2.45455H6.58336C6.66199 2.74825 7.07266 2.96591 7.5842 2.96591C7.80991 2.96591 7.95829 2.92235 8.05094 2.82928C8.16624 2.7131 8.16594 2.54934 8.16533 2.39102L8.16493 2.35187L8.16533 2.31312C8.16594 2.15501 8.16644 1.99145 8.05094 1.87527C7.95829 1.78199 7.81049 1.73864 7.5854 1.73864H7.5842ZM0.408147 2.45455C0.295294 2.45455 0.204074 2.54618 0.204074 2.65909V4.29545C0.204074 4.40836 0.295294 4.5 0.408147 4.5H2.248C2.27371 4.16189 2.4697 3.7263 2.85703 3.68621V2.65909C2.85703 2.54618 2.76581 2.45455 2.65296 2.45455H0.408147ZM6.78505 3.20841C6.96116 4.55043 6.69833 5.85089 6.08713 6.58501C5.76959 6.96607 5.38786 7.15909 4.95237 7.15909C4.75095 7.15909 4.63163 7.02628 4.56694 6.9146C4.39225 6.61289 4.36222 6.0211 4.75547 5.22869C4.49222 5.28781 4.16199 5.31818 3.76221 5.31818C3.52172 5.31818 2.96892 5.3165 2.60154 5.12083C2.56406 5.10089 2.52898 5.07872 2.49591 5.05451C2.43162 5.00746 2.37543 4.95294 2.33369 4.88752C2.31898 4.89435 2.30589 4.9021 2.29144 4.90909H0.204074C0.0912209 4.90909 0 5.00073 0 5.11364C0 5.22675 0.0912209 5.31818 0.204074 5.31818H1.66129C1.04698 5.83876 0.836089 6.44665 0.823867 6.48952C0.808562 6.54393 0.816208 6.60245 0.84539 6.65092C0.874573 6.6994 0.922221 6.73374 0.977321 6.74561L4.05477 7.56818H6.33824C6.33109 7.50477 6.32628 7.43768 6.32628 7.36364C6.32628 6.27402 7.37522 5.31818 8.57109 5.31818C8.60802 5.31818 8.643 5.32014 8.67831 5.32178C8.60525 4.50216 8.21086 3.81496 7.85842 3.35023C7.77394 3.36516 7.68399 3.375 7.5842 3.375C7.2834 3.375 7.01014 3.31416 6.78505 3.20841ZM2.91442 4.09091C2.89459 4.09091 2.87559 4.097 2.85703 4.10649L2.85623 4.10729C2.83296 4.11939 2.8113 4.13895 2.79086 4.16282C2.78806 4.16607 2.78523 4.16897 2.78249 4.17241C2.76233 4.19783 2.74371 4.22697 2.72749 4.2603C2.70707 4.30205 2.69136 4.34866 2.67886 4.39653C2.67492 4.41162 2.67314 4.42565 2.67009 4.44087C2.6662 4.46032 2.66045 4.47952 2.65814 4.4988C2.65985 4.49876 2.66122 4.49769 2.66292 4.4976C2.65978 4.52362 2.65296 4.55043 2.65296 4.57511C2.65296 4.78333 3.03224 4.90909 3.76221 4.90909C4.49259 4.90909 5.10184 4.78354 5.10184 4.57511C5.10184 4.36708 4.98486 4.09091 4.83997 4.09091H2.91442ZM8.57109 5.72727C7.64765 5.72727 6.73443 6.45832 6.73443 7.36364C6.73443 7.92409 6.97727 7.97727 7.14257 7.97727C7.48113 7.97727 7.34665 7.28141 8.16294 6.95455C8.40273 6.85861 8.63851 6.8287 8.85687 6.8287C9.22604 6.8287 9.54536 6.9146 9.75208 6.9146C9.9082 6.9146 10 6.86551 10 6.69287C9.9998 6.54539 9.73512 5.72727 8.57109 5.72727ZM8.81183 7.23939C8.62878 7.24389 8.4648 7.27434 8.3144 7.33447C8.27604 7.34981 8.24162 7.36623 8.20918 7.38321C8.18081 7.43926 8.16294 7.5013 8.16294 7.56818C8.16294 7.7938 8.34599 7.97727 8.57109 7.97727C8.79618 7.97727 8.97923 7.7938 8.97923 7.56818C8.97923 7.43298 8.91285 7.31385 8.81183 7.23939ZM1.2639 7.24538C1.23962 7.35093 1.22444 7.45875 1.22444 7.56818C1.22444 8.35752 1.86544 9 2.65296 9C3.30028 9 3.84759 8.56565 4.02248 7.97288C3.99799 7.97104 3.97342 7.97003 3.94954 7.96369L3.42461 7.82306C3.31706 8.14891 3.01376 8.38636 2.65296 8.38636C2.20277 8.38636 1.83666 8.01941 1.83666 7.56818C1.83666 7.51152 1.84377 7.45657 1.855 7.40319L1.2639 7.24538ZM9.33278 7.28054C9.36665 7.37054 9.38738 7.46673 9.38738 7.56818C9.38738 8.01941 9.02127 8.38636 8.57109 8.38636C8.21641 8.38636 7.91706 8.1573 7.80462 7.83984C7.79972 7.84966 7.79496 7.85959 7.79027 7.86941C7.71741 8.01975 7.6046 8.24672 7.37216 8.34122C7.62908 8.74049 8.07417 9 8.57109 9C9.35861 9 9.9996 8.35752 9.9996 7.56818C9.9996 7.47511 9.98746 7.38333 9.96971 7.29292C9.90461 7.31092 9.83433 7.32369 9.75168 7.32369C9.63393 7.32369 9.50653 7.30537 9.37144 7.28573C9.35919 7.28389 9.34522 7.28238 9.33278 7.28054ZM2.25079 7.50945C2.24793 7.52889 2.24481 7.54814 2.24481 7.56818C2.24481 7.7938 2.42786 7.97727 2.65296 7.97727C2.82499 7.97727 2.97181 7.86936 3.03161 7.718L2.25079 7.50945Z" fill="#828282"/>
</svg>
