<svg width="47" height="48" viewBox="0 0 47 48" fill="none" xmlns="http://www.w3.org/2000/svg">
<path d="M43.6895 11.8996C43.6895 8.04744 38.6383 5.14307 31.9395 5.14307C25.2406 5.14307 20.1895 8.04744 20.1895 11.8996C20.1895 11.9338 20.1968 11.9662 20.1977 11.9999H20.1895V17.1426H23.5465V16.7179C25.6472 17.9278 28.5866 18.6553 31.9395 18.6553C35.0325 18.6553 37.7653 18.0304 39.8207 16.9846C40.1392 17.3212 40.3324 17.6559 40.3324 17.9493C40.3324 19.2735 36.9851 21.2765 31.9395 21.2765H28.5834V24.7049H31.9395C35.033 24.7049 37.7667 24.0801 39.8221 23.0338C40.141 23.3699 40.332 23.7046 40.332 23.9995C40.332 25.3246 36.9846 27.3276 31.939 27.3276L30.7507 27.3332C30.0204 27.3398 29.3131 27.3468 28.6238 27.3281L28.5416 30.7551C28.9106 30.7645 29.2842 30.7678 29.6652 30.7678C30.0292 30.7678 30.3996 30.7654 30.7759 30.7621L31.939 30.7565C35.0344 30.7565 37.769 30.1307 39.8248 29.0835C40.1447 29.4224 40.3315 29.759 40.3315 30.0501C40.3315 31.3753 36.9841 33.3782 31.9385 33.3782H28.5824V36.8067H31.9385C35.0339 36.8067 37.7681 36.1809 39.8243 35.1337C40.1447 35.4721 40.3315 35.8087 40.3315 36.1003C40.3315 37.4254 36.9841 39.4284 31.9385 39.4284H28.5824V42.8568H31.9385C38.6374 42.8568 43.6885 39.9524 43.6885 36.1003C43.6885 36.0684 43.6844 36.0323 43.6835 35.9999H43.6885V11.9999H43.6803C43.6817 11.9662 43.6895 11.9334 43.6895 11.8996ZM23.5465 11.8996C23.5465 10.5745 26.8938 8.5715 31.9395 8.5715C36.9851 8.5715 40.3324 10.5745 40.3324 11.8996C40.3324 13.2238 36.9851 15.2268 31.9395 15.2268C26.8938 15.2268 23.5465 13.2238 23.5465 11.8996Z" fill="#ED1429"/>
<path d="M15.1533 17.1426C8.45444 17.1426 3.40332 20.047 3.40332 23.8991C3.40332 23.9334 3.41066 23.9657 3.41158 23.9995H3.40332V35.9995C3.40332 39.8516 8.45444 42.756 15.1533 42.756C21.8522 42.756 26.9033 39.8516 26.9033 35.9995V23.9999H26.8951C26.896 23.9662 26.9033 23.9334 26.9033 23.8996C26.9033 20.0474 21.8522 17.1426 15.1533 17.1426ZM6.76033 29.9498C6.76033 29.6535 6.94989 29.3193 7.26889 28.9832C9.32468 30.0299 12.0588 30.6552 15.1533 30.6552C18.2464 30.6552 20.9792 30.0304 23.0345 28.9846C23.3531 29.3212 23.5463 29.6559 23.5463 29.9493C23.5463 31.2735 20.1989 33.2765 15.1533 33.2765C10.1077 33.2765 6.76033 31.274 6.76033 29.9498ZM15.1533 20.5715C20.1989 20.5715 23.5463 22.5745 23.5463 23.8996C23.5463 25.2238 20.1989 27.2268 15.1533 27.2268C10.1077 27.2268 6.76033 25.2238 6.76033 23.8996C6.76033 22.5745 10.1077 20.5715 15.1533 20.5715ZM15.1533 39.328C10.1077 39.328 6.76033 37.3251 6.76033 35.9999C6.76033 35.7051 6.95173 35.3704 7.27026 35.0343C9.32605 36.0805 12.0593 36.7059 15.1533 36.7059C18.2469 36.7059 20.9806 36.081 23.0359 35.0348C23.3549 35.3709 23.5459 35.7055 23.5459 36.0004C23.5463 37.3251 20.1989 39.328 15.1533 39.328Z" fill="#ED1429"/>
</svg>
