<svg width="20" height="20" viewBox="0 0 20 20" fill="none" xmlns="http://www.w3.org/2000/svg">
<g clip-path="url(#clip0_84_503)">
<path fill-rule="evenodd" clip-rule="evenodd" d="M18.75 13.75C18.75 14.6644 17.7956 15.625 16.875 15.625H11.875L10 18.125L8.125 15.625H3.125C2.20438 15.625 1.25 14.6644 1.25 13.75V3.125C1.25 2.21062 2.20438 1.25 3.125 1.25H16.875C17.7956 1.25 18.75 2.21062 18.75 3.125V13.75ZM16.6669 0H3.33313C1.4925 0 0 1.48187 0 3.31062V13.8669C0 15.6944 1.28438 16.875 3.125 16.875H7.27438L10 20.0006L12.7256 16.875H16.875C18.7156 16.875 20 15.6944 20 13.8669V3.31062C20 1.48187 18.5075 0 16.6669 0Z" fill="#2A2929"/>
</g>
<defs>
<clipPath id="clip0_84_503">
<rect width="20" height="20" fill="white"/>
</clipPath>
</defs>
</svg>
