<svg width="15" height="15" viewBox="0 0 15 15" fill="none" xmlns="http://www.w3.org/2000/svg">
<path fill-rule="evenodd" clip-rule="evenodd" d="M0 11.875C0 9.70375 1.38401 7.85567 3.31797 7.165C3.8436 6.97725 4.40986 6.875 5 6.875C5.59014 6.875 6.15642 6.97725 6.682 7.165C6.96758 7.26692 7.24108 7.39417 7.5 7.54392C7.75892 7.39417 8.03242 7.26692 8.318 7.165C8.84358 6.97725 9.40983 6.875 10 6.875C10.5902 6.875 11.1564 6.97725 11.682 7.165C13.616 7.85567 15 9.70375 15 11.875V14.375H10.625V13.125H13.75V11.875C13.75 9.80392 12.0711 8.125 10 8.125C9.50242 8.125 9.0275 8.22192 8.593 8.39792C9.464 9.29775 10 10.5238 10 11.875V14.375H0V11.875ZM5 6.25C4.42587 6.25 3.8879 6.09517 3.42557 5.825C2.49808 5.283 1.875 4.27676 1.875 3.125C1.875 1.39911 3.27411 0 5 0C6.02225 0 6.92983 0.490842 7.5 1.24969C8.07017 0.490842 8.97775 0 10 0C11.7259 0 13.125 1.39911 13.125 3.125C13.125 4.27676 12.5019 5.283 11.5744 5.825C11.1121 6.09517 10.5742 6.25 10 6.25C9.42583 6.25 8.88792 6.09517 8.42558 5.825C8.06467 5.61408 7.74992 5.33292 7.5 5.0003C7.25008 5.333 6.93533 5.61408 6.57442 5.825C6.11208 6.09517 5.57413 6.25 5 6.25ZM8.75 11.875V13.125H1.25V11.875C1.25 9.80392 2.92893 8.125 5 8.125C7.07108 8.125 8.75 9.80392 8.75 11.875ZM6.875 3.125C6.875 4.16053 6.0355 5 5 5C3.96447 5 3.125 4.16053 3.125 3.125C3.125 2.08947 3.96447 1.25 5 1.25C6.0355 1.25 6.875 2.08947 6.875 3.125ZM10 1.25C8.9645 1.25 8.125 2.08947 8.125 3.125C8.125 4.16053 8.9645 5 10 5C11.0355 5 11.875 4.16053 11.875 3.125C11.875 2.08947 11.0355 1.25 10 1.25Z" fill="#2A2929"/>
</svg>
