<svg width="45" height="45" viewBox="0 0 45 45" fill="none" xmlns="http://www.w3.org/2000/svg">
<circle cx="22.5" cy="22.5" r="22.5" fill="#038263"/>
<path d="M23 8C31.2845 8 38 14.7155 38 23C38 31.2845 31.2845 38 23 38C14.7155 38 8 31.2845 8 23C8 14.7155 14.7155 8 23 8ZM23 14C22.6022 14 22.2206 14.158 21.9393 14.4393C21.658 14.7206 21.5 15.1022 21.5 15.5V23C21.5001 23.3978 21.6582 23.7793 21.9395 24.0605L26.4395 28.5605C26.7224 28.8337 27.1013 28.9849 27.4946 28.9815C27.8879 28.9781 28.2641 28.8203 28.5422 28.5422C28.8203 28.2641 28.9781 27.8879 28.9815 27.4946C28.9849 27.1013 28.8337 26.7224 28.5605 26.4395L24.5 22.379V15.5C24.5 15.1022 24.342 14.7206 24.0607 14.4393C23.7794 14.158 23.3978 14 23 14Z" fill="white"/>
</svg>
