<svg width="33" height="33" viewBox="0 0 33 33" fill="none" xmlns="http://www.w3.org/2000/svg">
<path d="M18.1374 2.29616C17.5519 1.85857 17.2591 1.63977 16.9357 1.55566C16.6506 1.48145 16.3499 1.48145 16.0647 1.55566C15.7414 1.63977 15.4486 1.85857 14.8631 2.29616L3.55923 10.744C2.80361 11.3087 2.42581 11.591 2.15363 11.9446C1.91253 12.2579 1.73291 12.6107 1.62363 12.9859C1.50024 13.4094 1.50024 13.8693 1.50024 14.7891V26.3754C1.50024 28.1692 1.50024 29.0661 1.86356 29.7512C2.18313 30.3538 2.69306 30.8439 3.32028 31.1509C4.03331 31.5 4.96674 31.5 6.83358 31.5H10.1669C10.6336 31.5 10.867 31.5 11.0452 31.4127C11.202 31.336 11.3295 31.2135 11.4094 31.0628C11.5002 30.8916 11.5002 30.6674 11.5002 30.2188V19.6493C11.5002 18.7525 11.5002 18.304 11.6819 17.9614C11.8417 17.6602 12.0967 17.4152 12.4103 17.2616C12.7668 17.087 13.2334 17.087 14.1669 17.087H18.8336C19.7671 17.087 20.2337 17.087 20.5902 17.2616C20.9039 17.4152 21.1587 17.6602 21.3186 17.9614C21.5002 18.304 21.5002 18.7525 21.5002 19.6493V30.2188C21.5002 30.6674 21.5002 30.8916 21.5911 31.0628C21.6709 31.2135 21.7984 31.336 21.9552 31.4127C22.1336 31.5 22.3669 31.5 22.8336 31.5H26.1669C28.0337 31.5 28.9672 31.5 29.6802 31.1509C30.3074 30.8439 30.8174 30.3538 31.1369 29.7512C31.5002 29.0661 31.5002 28.1692 31.5002 26.3754V14.7891C31.5002 13.8693 31.5002 13.4094 31.3769 12.9859C31.2676 12.6107 31.0879 12.2579 30.8469 11.9446C30.5747 11.591 30.1969 11.3087 29.4412 10.744L18.1374 2.29616Z" stroke="#2A2929" stroke-width="3" stroke-linecap="round" stroke-linejoin="round"/>
</svg>
