<svg width="48" height="48" viewBox="0 0 48 48" fill="none" xmlns="http://www.w3.org/2000/svg">
<g clip-path="url(#clip0_215_549)">
<path d="M8.76177 36.7597H19.7774C19.9977 37.237 20.2915 37.7144 20.6954 38.1183C21.5215 38.9444 22.6047 39.3851 23.7797 39.3851C24.9547 39.3851 26.0379 38.9444 26.8641 38.1183L34.6118 30.3706C34.9606 30.0218 34.9606 29.5077 34.6118 29.1589C34.2629 28.8101 33.7489 28.8101 33.4 29.1589L25.5973 36.9616C24.5875 37.9714 22.9352 37.9714 21.8887 36.9616C20.879 35.9519 20.879 34.2995 21.8887 33.253L31.6008 23.5409C33.2165 21.9253 35.3094 21.1542 37.384 21.0991H47.4817V31.5456H42.5981C41.4598 31.5456 40.3766 31.9862 39.5137 32.8124L32.7575 39.5686C31.1051 41.221 28.7918 42.0104 26.6622 42.0104H8.76177C7.32974 42.0104 6.15474 40.8354 6.15474 39.4034C6.15474 37.9714 7.32974 36.7597 8.76177 36.7597ZM3.36411 20.9155C0.0777855 18.0331 -0.326122 13.0026 2.57466 9.66123C5.45708 6.3749 10.4876 5.97099 13.829 8.87178L14.9672 9.86318L16.1055 8.87178C19.3918 5.98935 24.4774 6.3749 27.3598 9.66123C30.2606 12.9476 29.8567 18.0331 26.5704 20.9155L15.1508 32.6288L3.36411 20.9155Z" fill="#F58319"/>
</g>
<defs>
<clipPath id="clip0_215_549">
<rect width="47" height="47" fill="white" transform="matrix(-1 0 0 1 47.5 0.5)"/>
</clipPath>
</defs>
</svg>
