<svg width="48" height="48" viewBox="0 0 48 48" fill="none" xmlns="http://www.w3.org/2000/svg">
<g clip-path="url(#clip0_215_544)">
<path d="M39.2382 36.7597H28.2226C28.0023 37.237 27.7085 37.7144 27.3046 38.1183C26.4785 38.9444 25.3953 39.3851 24.2203 39.3851C23.0453 39.3851 21.9621 38.9444 21.1359 38.1183L13.3882 30.3706C13.0394 30.0218 13.0394 29.5077 13.3882 29.1589C13.7371 28.8101 14.2511 28.8101 14.6 29.1589L22.4027 36.9616C23.4125 37.9714 25.0648 37.9714 26.1113 36.9616C27.121 35.9519 27.121 34.2995 26.1113 33.253L16.3992 23.5409C14.7835 21.9253 12.6906 21.1542 10.616 21.0991H0.518311V31.5456H5.4019C6.54019 31.5456 7.62339 31.9862 8.48628 32.8124L15.2425 39.5686C16.8949 41.221 19.2082 42.0104 21.3378 42.0104H39.2382C40.6703 42.0104 41.8453 40.8354 41.8453 39.4034C41.8453 37.9714 40.6703 36.7597 39.2382 36.7597ZM44.6359 20.9155C47.9222 18.0331 48.3261 13.0026 45.4253 9.66123C42.5429 6.3749 37.5125 5.97099 34.171 8.87178L33.0328 9.86318L31.8945 8.87178C28.6082 5.98935 23.5226 6.3749 20.6402 9.66123C17.7394 12.9476 18.1433 18.0331 21.4296 20.9155L32.8492 32.6288L44.6359 20.9155Z" fill="#038263"/>
</g>
<defs>
<clipPath id="clip0_215_544">
<rect width="47" height="47" fill="white" transform="translate(0.5 0.5)"/>
</clipPath>
</defs>
</svg>
