<svg width="7" height="9" viewBox="0 0 7 9" fill="none" xmlns="http://www.w3.org/2000/svg">
<path d="M3.5 0C1.56712 0 0 1.51116 0 3.375C0 4.10892 0.249521 4.78237 0.664271 5.33391C0.671708 5.34712 0.672875 5.36189 0.681333 5.37455L3.01467 8.74955C3.12288 8.90606 3.30517 9 3.5 9C3.69483 9 3.87712 8.90606 3.98533 8.74955L6.31867 5.37455C6.32727 5.36189 6.32829 5.34712 6.33573 5.33391C6.75048 4.78237 7 4.10892 7 3.375C7 1.51116 5.43288 0 3.5 0ZM3.5 4.5C2.85571 4.5 2.33333 3.99628 2.33333 3.375C2.33333 2.75372 2.85571 2.25 3.5 2.25C4.14429 2.25 4.66667 2.75372 4.66667 3.375C4.66667 3.99628 4.14429 4.5 3.5 4.5Z" fill="#828282"/>
</svg>
