<svg width="45" height="45" viewBox="0 0 45 45" fill="none" xmlns="http://www.w3.org/2000/svg">
<circle cx="22.5" cy="22.5" r="22.5" fill="#038263"/>
<circle cx="38" cy="7" r="4" fill="#ED1429"/>
<path d="M32.5509 32.916H25.2853C25.1399 33.2309 24.9462 33.5457 24.6798 33.8121C24.1349 34.357 23.4204 34.6477 22.6454 34.6477C21.8704 34.6477 21.156 34.357 20.611 33.8121L15.5009 28.702C15.2708 28.4719 15.2708 28.1328 15.5009 27.9027C15.731 27.6727 16.07 27.6727 16.3001 27.9027L21.4466 33.0492C22.1126 33.7152 23.2024 33.7152 23.8927 33.0492C24.5587 32.3832 24.5587 31.2934 23.8927 30.6031L17.4868 24.1973C16.4212 23.1316 15.0407 22.623 13.6724 22.5867H7.01221V29.477H10.2333C10.9841 29.477 11.6985 29.7676 12.2677 30.3125L16.7239 34.7687C17.8138 35.8586 19.3396 36.3793 20.7442 36.3793H32.5509C33.4954 36.3793 34.2704 35.6043 34.2704 34.6598C34.2704 33.7152 33.4954 32.916 32.5509 32.916ZM36.111 22.4656C38.2786 20.5645 38.545 17.2465 36.6317 15.0426C34.7306 12.875 31.4126 12.6086 29.2087 14.5219L28.4579 15.1758L27.7071 14.5219C25.5395 12.6207 22.1853 12.875 20.2841 15.0426C18.3708 17.2102 18.6372 20.5645 20.8048 22.4656L28.3368 30.1914L36.111 22.4656Z" fill="white"/>
</svg>
