<svg width="189" height="189" viewBox="0 0 189 189" fill="none" xmlns="http://www.w3.org/2000/svg">
<path d="M94.5 173.329C137.992 173.329 173.25 138.072 173.25 94.5788C173.25 51.0864 137.992 15.8289 94.5 15.8289C51.0076 15.8289 15.75 51.0864 15.75 94.5788C15.75 138.072 51.0076 173.329 94.5 173.329Z" fill="#5A5757"/>
<path d="M94.5 54.6519C78.1988 54.6519 64.9688 67.8819 64.9688 84.1828C64.9688 100.169 77.49 113.163 94.1062 113.635C94.3425 113.635 94.6575 113.635 94.815 113.635C94.9725 113.635 95.2087 113.635 95.3662 113.635C95.445 113.635 95.5238 113.635 95.5238 113.635C111.431 113.084 123.952 100.169 124.031 84.1828C124.031 67.8819 110.801 54.6519 94.5 54.6519Z" fill="white"/>
<path d="M147.898 152.46C133.881 165.375 115.138 173.329 94.5055 173.329C73.873 173.329 55.1305 165.375 41.113 152.46C43.003 145.294 48.1218 138.758 55.603 133.718C77.1018 119.385 112.067 119.385 133.408 133.718C140.968 138.758 146.008 145.294 147.898 152.46Z" fill="white"/>
</svg>
