<svg width="31" height="33" viewBox="0 0 31 33" fill="none" xmlns="http://www.w3.org/2000/svg">
<path d="M29.2711 24.8077L27.9873 22.8462C25.77 19.6154 24.6029 15.8077 24.6029 11.8846C24.6029 7.73077 21.802 4.38462 18.0675 3.23077C17.7174 2.19231 16.667 1.5 15.5 1.5C14.333 1.5 13.2826 2.19231 12.9325 3.23077C9.19798 4.38462 6.39708 7.73077 6.39708 11.8846C6.39708 15.8077 5.23004 19.6154 3.01266 22.8462L1.72892 24.8077C1.1454 25.7308 1.72892 26.8846 2.89596 26.8846H28.104C29.2711 26.8846 29.8546 25.7308 29.2711 24.8077Z" stroke="#2A2929" stroke-width="3" stroke-miterlimit="10" stroke-linecap="round" stroke-linejoin="round"/>
<path d="M20.1681 26.8845C20.1681 29.423 18.0674 31.4999 15.5 31.4999C12.9325 31.4999 10.8318 29.423 10.8318 26.8845" stroke="#2A2929" stroke-width="3" stroke-miterlimit="10" stroke-linecap="round" stroke-linejoin="round"/>
</svg>
