<svg width="45" height="45" viewBox="0 0 45 45" fill="none" xmlns="http://www.w3.org/2000/svg">
<circle cx="22.5" cy="22.5" r="22.5" fill="#ED1429"/>
<path d="M29.5646 24.2206C29.4218 23.8126 29.0545 23.5575 28.6261 23.5575H27.9783V11.8259C27.9783 10.6315 27.0303 9.68359 25.836 9.68359H14.3084C13.0403 9.68359 11.962 10.7619 11.962 12.0299V30.6985C11.962 31.9125 13.0791 32.9428 14.2829 32.9428H25.9342C26.0573 32.9428 26.1658 33.0432 26.1566 33.166C26.1469 33.2952 26.039 33.3509 25.9125 33.3509H21.2708L24.8158 35.3912H32.977L29.5646 24.2206ZM20.1283 31.9431C19.8019 31.9431 19.5571 31.6984 19.557 31.372C19.5569 31.0614 19.8178 30.8005 20.1285 30.8005C20.4548 30.8006 20.6996 31.0455 20.6996 31.3718C20.6894 31.6983 20.4547 31.9431 20.1283 31.9431ZM26.4481 23.5575H24.4435C23.9028 23.5575 23.4437 24.037 23.4437 24.5777C23.4437 25.1183 23.9028 25.5978 24.4435 25.5978H26.4634V29.8824H13.5943V12.642H26.4481V23.5575ZM15.8279 16.1781L16.5239 21.6112H18.8485L19.5378 16.1781H16.6927L16.1251 14.2117L15.8143 14.2995L16.3549 16.1714L15.8279 16.1781ZM19.8688 19.3474C19.8688 19.3474 19.781 18.5568 20.9906 18.5568H22.9165C24.1194 18.5568 24.0383 19.3474 24.0383 19.3474H19.8688ZM24.0314 20.8206C24.0314 20.8206 24.1125 21.6112 22.9097 21.6112H20.9906C19.781 21.6112 19.8688 20.8206 19.8688 20.8206H24.0314ZM20.0513 20.4354C19.8553 20.4354 19.6931 20.2799 19.6931 20.0772C19.6931 19.8812 19.8485 19.719 20.0513 19.719H23.876C24.0719 19.719 24.2341 19.8745 24.2341 20.0772C24.2341 20.2732 24.0719 20.4354 23.876 20.4354H20.0513ZM24.3152 22.6789H15.6657V22.0234H24.3153L24.3152 22.6789Z" fill="white"/>
</svg>
