<svg width="31" height="31" viewBox="0 0 31 31" fill="none" xmlns="http://www.w3.org/2000/svg">
<path d="M15.5 9.34619V15.5L19.3462 19.3462" fill="#2A2929"/>
<path d="M15.5 9.34619V15.5L19.3462 19.3462" stroke="#2A2929" stroke-width="3" stroke-linecap="round" stroke-linejoin="round"/>
<path d="M1.6543 14.0957C2.34401 14.0959 2.91619 14.5942 3.03418 15.25H3.05762V15.5C3.05762 22.3716 8.6283 27.9424 15.5 27.9424C17.7685 27.9424 19.8911 27.3361 21.7197 26.2783L21.9365 26.1533L21.9482 26.1738C22.5751 25.9474 23.2932 26.1939 23.6387 26.791C23.9838 27.3881 23.8386 28.1319 23.3301 28.5625L23.3428 28.584L22.9092 28.834L22.9072 28.8301C20.7808 30.014 18.343 30.7034 15.75 30.7451V30.75H15.25V30.7461C7.02615 30.6139 0.385115 23.9739 0.25293 15.75H0.25V15.25H0.273438C0.391451 14.5941 0.964381 14.0957 1.6543 14.0957ZM15.75 0.25V0.253906C23.9739 0.386099 30.6149 7.02615 30.7471 15.25H30.75V15.75H30.7461C30.7043 18.3431 30.014 20.7808 28.8301 22.9072L28.834 22.9092L28.584 23.3428L28.5625 23.3301C28.1319 23.8386 27.3881 23.9838 26.791 23.6387C26.1939 23.2932 25.9474 22.5751 26.1738 21.9482L26.1533 21.9365L26.2783 21.7197C27.2699 20.0055 27.8651 18.0329 27.9355 15.9238L27.9424 15.5L27.9385 15.1787C27.8569 11.9596 26.5496 9.04718 24.4697 6.88281L24.4258 6.92773L24.249 6.75098C21.726 4.22806 18.4106 3.00144 15.1299 3.0625C12.0901 3.15119 9.32519 4.32909 7.20898 6.22168L7.63574 6.22461L7.88574 6.22559L7.88477 6.24902C8.54035 6.37013 9.03569 6.94566 9.03223 7.63574C9.02858 8.32551 8.52754 8.89413 7.87109 9.00879V9.0332L7.37109 9.03125V9.03027L3.70508 9.0127L3.45508 9.01074V8.9873C2.88554 8.88179 2.43795 8.43399 2.33301 7.86426L2.30957 7.86523L2.30859 7.61523L2.30664 7.36523V7.36426L2.28809 3.69922L2.28711 3.44922L2.31055 3.44824C2.42567 2.79222 2.996 2.29157 3.68555 2.28809C4.37539 2.28472 4.95 2.78025 5.07129 3.43555H5.09473L5.09668 3.68066V3.68555L5.09863 4.25391C7.9594 1.60793 11.5961 0.277757 15.25 0.251953V0.25H15.75Z" fill="#2A2929" stroke="#2A2929" stroke-width="0.5"/>
</svg>
