<svg width="9" height="9" viewBox="0 0 9 9" fill="none" xmlns="http://www.w3.org/2000/svg">
<path fill-rule="evenodd" clip-rule="evenodd" d="M2.5 2C2.5 1.46957 2.71071 0.960859 3.08579 0.585786C3.46086 0.210714 3.96957 0 4.5 0C5.03043 0 5.53914 0.210714 5.91421 0.585786C6.28929 0.960859 6.5 1.46957 6.5 2C6.5 2.53043 6.28929 3.03914 5.91421 3.41421C5.53914 3.78929 5.03043 4 4.5 4C3.96957 4 3.46086 3.78929 3.08579 3.41421C2.71071 3.03914 2.5 2.53043 2.5 2ZM2.5 5C1.83696 5 1.20107 5.26339 0.732233 5.73223C0.263392 6.20107 0 6.83696 0 7.5C0 7.89782 0.158035 8.27936 0.43934 8.56066C0.720644 8.84196 1.10218 9 1.5 9H7.5C7.89782 9 8.27936 8.84196 8.56066 8.56066C8.84196 8.27936 9 7.89782 9 7.5C9 6.83696 8.73661 6.20107 8.26777 5.73223C7.79893 5.26339 7.16304 5 6.5 5H2.5Z" fill="#828282"/>
</svg>
