<svg width="127" height="127" viewBox="0 0 127 127" fill="none" xmlns="http://www.w3.org/2000/svg">
<path fill-rule="evenodd" clip-rule="evenodd" d="M0 63.5C0 28.4299 28.4299 0 63.5 0C98.5698 0 127 28.4299 127 63.5C127 98.5698 98.5698 127 63.5 127C28.4299 127 0 98.5698 0 63.5ZM87.0401 46.3098C89.5198 48.7897 89.5198 52.8104 87.0401 55.2901L63.6543 78.6759C60.0621 82.2681 54.2379 82.2681 50.6456 78.6759L39.9598 67.9901C37.48 65.5104 37.48 61.4896 39.9598 59.0099C42.4397 56.5302 46.4603 56.5302 48.9402 59.0099L57.15 67.2198L78.0599 46.3098C80.5396 43.83 84.5604 43.83 87.0401 46.3098Z" fill="#038263"/>
</svg>
